<?xml version="1.0" encoding="utf-8"?>
<!-- Generator: Adobe Illustrator 16.0.0, SVG Export Plug-In . SVG Version: 6.00 Build 0)  -->
<!DOCTYPE svg PUBLIC "-//W3C//DTD SVG 1.1//EN" "http://www.w3.org/Graphics/SVG/1.1/DTD/svg11.dtd">
<svg version="1.1" id="Layer_1" xmlns="http://www.w3.org/2000/svg" xmlns:xlink="http://www.w3.org/1999/xlink" x="0px" y="0px"
	 width="512px" height="404.031px" viewBox="0 0 512 404.031" enable-background="new 0 0 512 404.031" xml:space="preserve">
<g>
	<defs>
		<rect id="SVGID_1_" width="512" height="404.031"/>
	</defs>
	<clipPath id="SVGID_2_">
		<use xlink:href="#SVGID_1_"  overflow="visible"/>
	</clipPath>
	<path clip-path="url(#SVGID_2_)" fill="#FFFFFF" d="M218.531,384.004c-2.633,0-5.211,1.063-7.07,2.931
		c-1.859,1.862-2.93,4.429-2.93,7.062c0,2.641,1.071,5.219,2.93,7.078c1.859,1.86,4.437,2.93,7.07,2.93
		c2.629,0,5.207-1.069,7.071-2.93c1.859-1.859,2.929-4.438,2.929-7.078c0-2.633-1.07-5.199-2.929-7.062
		C223.738,385.066,221.16,384.004,218.531,384.004"/>
	<path clip-path="url(#SVGID_2_)" fill="#3C2516" d="M417.707,216.113l-7.188-32.465c1.203,0.149,2.422,0.231,3.659,0.231h20
		c5.524,0,10.001-4.477,10.001-10v-40c0-5.524-4.477-10-10.001-10h-20c-5.827,0-11.269,1.676-15.878,4.562l-3.898-17.613
		C406.582,109.176,416,98.719,416,86.094V68.031c0-13.769-11.199-24.969-24.969-24.969H332c-10.605,0-19.684,6.653-23.297,16H285
		c-14.336,0-26,11.665-26,26c0,14.336,11.664,26,26,26h51.473v20.153c0,5.519,4.477,10,10,10s10-4.481,10-10v-20.153h17.5
		l25.102,113.418l-47.508,84.618c-5.191,9.211-14.98,14.929-25.555,14.929H207.414C202.449,282.396,166.949,250,124,250
		c-19.004,0-36.934,6.191-51.852,17.902c-0.019,0.012-0.039,0.028-0.058,0.043c-17.762,13.969-28.926,34.02-31.528,56.082H20.023
		c1.305-71.886,60.192-129.965,132.383-129.965h54.938c5.597,0,10.156,4.555,10.156,10.157v89.808c0,5.523,4.477,10,10,10h69.211
		c21.707,0,41.711-11.8,52.203-30.797c4.855-8.789,7.43-18.742,7.438-28.777l0.051-33.226c0.008-5.524-4.465-10.004-9.988-10.012
		h-0.012c-5.516,0-9.992,4.465-10,9.984l-0.051,33.231c-0.004,6.672-1.715,13.284-4.941,19.125
		c-6.977,12.629-20.273,20.472-34.699,20.472H237.5V204.22c0-8.313-3.383-15.853-8.84-21.313c5.488-6.039,8.84-14.058,8.84-22.844
		c0-9.929-4.277-18.874-11.086-25.097c1.344-2.684,2.117-5.703,2.117-8.903V20c0-11.027-8.972-20-20-20H102.469
		c-11.028,0-20,8.973-20,20v58H40.09c-5.524,0-10,4.477-10,10c0,5.523,4.476,10,10,10h42.379v28.062H10c-5.523,0-10,4.477-10,10
		c0,5.524,4.477,10,10,10h66.527c-1.937,4.274-3.027,9.012-3.027,14c0,11.672,5.914,21.989,14.902,28.114
		C36.254,212.406,0,265.281,0,326.474v7.558c0,5.524,4.477,10,10,10h56.199c-0.129,0.645-0.199,1.313-0.199,2
		c0,14.512,5.371,27.785,14.215,37.969H40.09c-5.524,0-10,4.478-10,10c0,5.523,4.476,10,10,10h82.754
		c0.386,0.008,0.769,0.031,1.156,0.031c31.98,0,58-26.019,58-58c0-0.687-0.07-1.355-0.199-2h144.21
		c15.746,0,30.461-7.547,39.684-20.031h12.664c-2.848,6.931-4.359,14.398-4.359,22.031c0,14.512,5.371,27.785,14.215,37.969H258.531
		c-5.523,0-10,4.478-10,10c0,5.523,4.477,10,10,10h172.313c0.387,0.008,0.77,0.031,1.156,0.031c31.98,0,58-26.019,58-58
		c0-7.633-1.512-15.101-4.359-22.031H502c5.523,0,10-4.477,10-10C512,261.215,470.027,218.047,417.707,216.113 M414.179,143.879h10
		v20h-10c-5.515,0-10-4.484-10-10C404.179,148.367,408.664,143.879,414.179,143.879 M166.379,42.021h-22.024V20h22.024V42.021z
		 M102.469,20h21.886v32.02c0,5.523,4.481,10,10,10h42.024c5.523,0,10-4.477,10-10V20h22.152l0.016,106.062h-0.016H102.469V20z
		 M107.5,174.063c-7.719,0-14-6.281-14-14c0-7.718,6.281-14,14-14h96c7.719,0,14,6.282,14,14c0,7.719-6.281,14-14,14H107.5z
		 M162,346.031c0,20.824-16.84,37.781-37.613,37.989C124.258,384.017,124.129,384,124,384h-1.152
		C102.426,383.388,86,366.599,86,346.031c0-0.687-0.07-1.355-0.199-2h76.398C162.07,344.676,162,345.345,162,346.031
		 M60.742,324.031c2.477-15.886,10.82-30.238,23.707-40.359c0.031-0.023,0.059-0.047,0.09-0.069C95.891,274.703,109.535,270,124,270
		c31.906,0,58.434,23.457,63.25,54.031H60.742z M279,85.063c0-3.308,2.691-6,6-6h22.031v7.032c0,1.703,0.172,3.363,0.496,4.968H285
		C281.691,91.063,279,88.371,279,85.063 M346.473,91.063H332c-2.738,0-4.969-2.226-4.969-4.968V68.031
		c0-2.742,2.23-4.969,4.969-4.969h59.031c2.738,0,4.969,2.227,4.969,4.969v18.063c0,2.742-2.23,4.968-4.969,4.968H346.473z
		 M470,346.031c0,20.824-16.84,37.781-37.613,37.989C432.258,384.017,432.129,384,432,384h-1.152
		C410.426,383.388,394,366.599,394,346.031c0-7.945,2.477-15.625,7.039-22.031h61.922C467.523,330.406,470,338.086,470,346.031
		 M467.742,304h-90.379l38.133-67.922c38.945,0.719,71.004,30.113,75.867,67.922H467.742z"/>
	<path clip-path="url(#SVGID_2_)" fill="#FFFFFF" d="M346.473,181.215c5.523,0,10-4.477,10-10c0-5.524-4.477-10-10-10h-0.035
		c-5.523,0-9.984,4.476-9.984,10C336.453,176.738,340.949,181.215,346.473,181.215"/>
</g>
</svg>
